<mxfile host="app.diagrams.net" agent="Mozilla/5.0 (Windows NT 10.0; Win64; x64; rv:142.0) Gecko/20100101 Firefox/142.0" version="28.2.3">
  <diagram name="Page-1" id="EJ_G3w1azQlkb2A3bTI-">
    <mxGraphModel dx="1442" dy="1335" grid="0" gridSize="10" guides="1" tooltips="1" connect="1" arrows="1" fold="1" page="0" pageScale="1" pageWidth="827" pageHeight="1169" math="0" shadow="0">
      <root>
        <mxCell id="0" />
        <mxCell id="1" parent="0" />
        <mxCell id="6JfQClbxXGTTp9EC3AR5-3" value="Manager" style="swimlane;fontStyle=0;childLayout=stackLayout;horizontal=1;startSize=26;fillColor=none;horizontalStack=0;resizeParent=1;resizeParentMax=0;resizeLast=0;collapsible=1;marginBottom=0;html=1;" parent="1" vertex="1">
          <mxGeometry x="504" y="46" width="140" height="82" as="geometry" />
        </mxCell>
        <mxCell id="6JfQClbxXGTTp9EC3AR5-4" value="&lt;div&gt;id_manager : int PK&lt;/div&gt;&lt;div&gt;mail : text&lt;/div&gt;&lt;div&gt;password : varchar&lt;/div&gt;" style="text;strokeColor=none;fillColor=none;align=left;verticalAlign=top;spacingLeft=4;spacingRight=4;overflow=hidden;rotatable=0;points=[[0,0.5],[1,0.5]];portConstraint=eastwest;whiteSpace=wrap;html=1;" parent="6JfQClbxXGTTp9EC3AR5-3" vertex="1">
          <mxGeometry y="26" width="140" height="56" as="geometry" />
        </mxCell>
        <mxCell id="6JfQClbxXGTTp9EC3AR5-7" value="Employee" style="swimlane;fontStyle=0;childLayout=stackLayout;horizontal=1;startSize=26;fillColor=none;horizontalStack=0;resizeParent=1;resizeParentMax=0;resizeLast=0;collapsible=1;marginBottom=0;html=1;" parent="1" vertex="1">
          <mxGeometry x="704.5" y="128" width="140" height="140" as="geometry" />
        </mxCell>
        <mxCell id="6JfQClbxXGTTp9EC3AR5-8" value="&lt;div&gt;id_employee : int PK&lt;/div&gt;&lt;div&gt;id_manager : int FK&lt;/div&gt;&lt;div&gt;identity : varchar&lt;/div&gt;&lt;div&gt;password : varchar&lt;/div&gt;&lt;div&gt;mail : text&lt;/div&gt;&lt;div&gt;address : text&lt;/div&gt;&lt;div&gt;position : varchar&lt;/div&gt;" style="text;strokeColor=none;fillColor=none;align=left;verticalAlign=top;spacingLeft=4;spacingRight=4;overflow=hidden;rotatable=0;points=[[0,0.5],[1,0.5]];portConstraint=eastwest;whiteSpace=wrap;html=1;" parent="6JfQClbxXGTTp9EC3AR5-7" vertex="1">
          <mxGeometry y="26" width="140" height="114" as="geometry" />
        </mxCell>
        <mxCell id="6JfQClbxXGTTp9EC3AR5-12" value="Planning" style="swimlane;fontStyle=0;childLayout=stackLayout;horizontal=1;startSize=26;fillColor=none;horizontalStack=0;resizeParent=1;resizeParentMax=0;resizeLast=0;collapsible=1;marginBottom=0;html=1;" parent="1" vertex="1">
          <mxGeometry x="289" y="128" width="153" height="136" as="geometry" />
        </mxCell>
        <mxCell id="6JfQClbxXGTTp9EC3AR5-13" value="&lt;div&gt;id_schedule : int PK&lt;/div&gt;&lt;div&gt;id_manager : int FK&lt;/div&gt;&lt;div&gt;vacation_start : datetime&lt;/div&gt;&lt;div&gt;vacation_end : datetime&lt;/div&gt;&lt;div&gt;work_day : datetime&lt;/div&gt;&lt;div&gt;work_off : datetime&lt;/div&gt;&lt;div&gt;schedule : varchar&lt;/div&gt;" style="text;strokeColor=none;fillColor=none;align=left;verticalAlign=top;spacingLeft=4;spacingRight=4;overflow=hidden;rotatable=0;points=[[0,0.5],[1,0.5]];portConstraint=eastwest;whiteSpace=wrap;html=1;" parent="6JfQClbxXGTTp9EC3AR5-12" vertex="1">
          <mxGeometry y="26" width="153" height="110" as="geometry" />
        </mxCell>
        <mxCell id="6JfQClbxXGTTp9EC3AR5-16" value="&lt;div&gt;Event&lt;/div&gt;" style="swimlane;fontStyle=0;childLayout=stackLayout;horizontal=1;startSize=26;fillColor=none;horizontalStack=0;resizeParent=1;resizeParentMax=0;resizeLast=0;collapsible=1;marginBottom=0;html=1;" parent="1" vertex="1">
          <mxGeometry x="496" y="-400" width="140" height="83" as="geometry" />
        </mxCell>
        <mxCell id="6JfQClbxXGTTp9EC3AR5-17" value="&lt;div&gt;id_event : int PK&lt;/div&gt;&lt;div&gt;event_type : varchar&lt;/div&gt;&lt;div&gt;envent_date : datetime&lt;/div&gt;" style="text;strokeColor=none;fillColor=none;align=left;verticalAlign=top;spacingLeft=4;spacingRight=4;overflow=hidden;rotatable=0;points=[[0,0.5],[1,0.5]];portConstraint=eastwest;whiteSpace=wrap;html=1;" parent="6JfQClbxXGTTp9EC3AR5-16" vertex="1">
          <mxGeometry y="26" width="140" height="57" as="geometry" />
        </mxCell>
        <mxCell id="6JfQClbxXGTTp9EC3AR5-20" value="Installation" style="swimlane;fontStyle=0;childLayout=stackLayout;horizontal=1;startSize=26;fillColor=none;horizontalStack=0;resizeParent=1;resizeParentMax=0;resizeLast=0;collapsible=1;marginBottom=0;html=1;" parent="1" vertex="1">
          <mxGeometry x="897" y="-395" width="140" height="91" as="geometry" />
        </mxCell>
        <mxCell id="6JfQClbxXGTTp9EC3AR5-21" value="&lt;div&gt;id_installation : int PK&lt;/div&gt;&lt;div&gt;name : varchar&lt;/div&gt;&lt;div&gt;descritpion : text&lt;/div&gt;" style="text;strokeColor=none;fillColor=none;align=left;verticalAlign=top;spacingLeft=4;spacingRight=4;overflow=hidden;rotatable=0;points=[[0,0.5],[1,0.5]];portConstraint=eastwest;whiteSpace=wrap;html=1;" parent="6JfQClbxXGTTp9EC3AR5-20" vertex="1">
          <mxGeometry y="26" width="140" height="65" as="geometry" />
        </mxCell>
        <mxCell id="6JfQClbxXGTTp9EC3AR5-24" value="KPI" style="swimlane;fontStyle=0;childLayout=stackLayout;horizontal=1;startSize=26;fillColor=none;horizontalStack=0;resizeParent=1;resizeParentMax=0;resizeLast=0;collapsible=1;marginBottom=0;html=1;" parent="1" vertex="1">
          <mxGeometry x="250" y="-72" width="140" height="139" as="geometry" />
        </mxCell>
        <mxCell id="6JfQClbxXGTTp9EC3AR5-25" value="&lt;div&gt;id_kpi : int PK&lt;/div&gt;&lt;div&gt;id_review : int FK&lt;/div&gt;&lt;div&gt;id_loyalty : int FK&lt;/div&gt;&lt;div&gt;id_room : int FK&lt;/div&gt;&lt;div&gt;occupation_rate : float&lt;/div&gt;&lt;div&gt;average_rating : float&lt;/div&gt;&lt;div&gt;loyal_customers : int&lt;/div&gt;" style="text;strokeColor=none;fillColor=none;align=left;verticalAlign=top;spacingLeft=4;spacingRight=4;overflow=hidden;rotatable=0;points=[[0,0.5],[1,0.5]];portConstraint=eastwest;whiteSpace=wrap;html=1;" parent="6JfQClbxXGTTp9EC3AR5-24" vertex="1">
          <mxGeometry y="26" width="140" height="113" as="geometry" />
        </mxCell>
        <mxCell id="6JfQClbxXGTTp9EC3AR5-28" value="Customer" style="swimlane;fontStyle=0;childLayout=stackLayout;horizontal=1;startSize=26;fillColor=none;horizontalStack=0;resizeParent=1;resizeParentMax=0;resizeLast=0;collapsible=1;marginBottom=0;html=1;" parent="1" vertex="1">
          <mxGeometry x="2" y="-395" width="140" height="109" as="geometry" />
        </mxCell>
        <mxCell id="6JfQClbxXGTTp9EC3AR5-29" value="&lt;div&gt;id_customer : int PK&lt;/div&gt;&lt;div&gt;identity : varchar&lt;/div&gt;&lt;div&gt;password : varchar&lt;/div&gt;&lt;div&gt;mail : string&lt;/div&gt;&lt;div&gt;address : text&lt;/div&gt;" style="text;strokeColor=none;fillColor=none;align=left;verticalAlign=top;spacingLeft=4;spacingRight=4;overflow=hidden;rotatable=0;points=[[0,0.5],[1,0.5]];portConstraint=eastwest;whiteSpace=wrap;html=1;" parent="6JfQClbxXGTTp9EC3AR5-28" vertex="1">
          <mxGeometry y="26" width="140" height="83" as="geometry" />
        </mxCell>
        <mxCell id="6JfQClbxXGTTp9EC3AR5-32" value="Loyalty" style="swimlane;fontStyle=0;childLayout=stackLayout;horizontal=1;startSize=26;horizontalStack=0;resizeParent=1;resizeParentMax=0;resizeLast=0;collapsible=1;marginBottom=0;align=center;fontSize=14;" parent="1" vertex="1">
          <mxGeometry x="-2" y="-184" width="160" height="79" as="geometry" />
        </mxCell>
        <mxCell id="6JfQClbxXGTTp9EC3AR5-33" value="&lt;div&gt;id_loyalty : int PK&lt;/div&gt;&lt;div&gt;id_customer : int FK&lt;/div&gt;&lt;div&gt;total_points : int&lt;/div&gt;" style="text;strokeColor=none;fillColor=none;spacingLeft=4;spacingRight=4;overflow=hidden;rotatable=0;points=[[0,0.5],[1,0.5]];portConstraint=eastwest;fontSize=12;whiteSpace=wrap;html=1;" parent="6JfQClbxXGTTp9EC3AR5-32" vertex="1">
          <mxGeometry y="26" width="160" height="53" as="geometry" />
        </mxCell>
        <mxCell id="6JfQClbxXGTTp9EC3AR5-38" value="Reservation" style="swimlane;fontStyle=0;childLayout=stackLayout;horizontal=1;startSize=26;horizontalStack=0;resizeParent=1;resizeParentMax=0;resizeLast=0;collapsible=1;marginBottom=0;align=center;fontSize=14;" parent="1" vertex="1">
          <mxGeometry x="240" y="-395" width="160" height="106" as="geometry" />
        </mxCell>
        <mxCell id="6JfQClbxXGTTp9EC3AR5-39" value="&lt;div&gt;id_reservation : int PK&lt;/div&gt;&lt;div&gt;id_customer : int FK&lt;/div&gt;&lt;div&gt;debut_date : datetime&lt;/div&gt;&lt;div&gt;end_date : datetime&lt;/div&gt;&lt;div&gt;total_price : double&lt;/div&gt;" style="text;strokeColor=none;fillColor=none;spacingLeft=4;spacingRight=4;overflow=hidden;rotatable=0;points=[[0,0.5],[1,0.5]];portConstraint=eastwest;fontSize=12;whiteSpace=wrap;html=1;" parent="6JfQClbxXGTTp9EC3AR5-38" vertex="1">
          <mxGeometry y="26" width="160" height="80" as="geometry" />
        </mxCell>
        <mxCell id="6JfQClbxXGTTp9EC3AR5-42" value="Reviews" style="swimlane;fontStyle=0;childLayout=stackLayout;horizontal=1;startSize=26;fillColor=none;horizontalStack=0;resizeParent=1;resizeParentMax=0;resizeLast=0;collapsible=1;marginBottom=0;html=1;" parent="1" vertex="1">
          <mxGeometry x="250" y="-238" width="140" height="106" as="geometry" />
        </mxCell>
        <mxCell id="6JfQClbxXGTTp9EC3AR5-43" value="&lt;div&gt;id_review : int PK&lt;/div&gt;&lt;div&gt;id_customer : int FK&lt;/div&gt;&lt;div&gt;rating : int&lt;/div&gt;&lt;div&gt;commentary : text&lt;/div&gt;&lt;div&gt;answer : text&lt;/div&gt;" style="text;strokeColor=none;fillColor=none;align=left;verticalAlign=top;spacingLeft=4;spacingRight=4;overflow=hidden;rotatable=0;points=[[0,0.5],[1,0.5]];portConstraint=eastwest;whiteSpace=wrap;html=1;" parent="6JfQClbxXGTTp9EC3AR5-42" vertex="1">
          <mxGeometry y="26" width="140" height="80" as="geometry" />
        </mxCell>
        <mxCell id="6JfQClbxXGTTp9EC3AR5-46" value="Reward" style="swimlane;fontStyle=0;childLayout=stackLayout;horizontal=1;startSize=26;horizontalStack=0;resizeParent=1;resizeParentMax=0;resizeLast=0;collapsible=1;marginBottom=0;align=center;fontSize=14;" parent="1" vertex="1">
          <mxGeometry x="-2" y="98" width="160" height="63" as="geometry" />
        </mxCell>
        <mxCell id="6JfQClbxXGTTp9EC3AR5-47" value="&lt;div&gt;id_reward : int PK&lt;/div&gt;&lt;div&gt;discount : double&lt;/div&gt;" style="text;strokeColor=none;fillColor=none;spacingLeft=4;spacingRight=4;overflow=hidden;rotatable=0;points=[[0,0.5],[1,0.5]];portConstraint=eastwest;fontSize=12;whiteSpace=wrap;html=1;" parent="6JfQClbxXGTTp9EC3AR5-46" vertex="1">
          <mxGeometry y="26" width="160" height="37" as="geometry" />
        </mxCell>
        <mxCell id="6JfQClbxXGTTp9EC3AR5-63" value="Room" style="swimlane;fontStyle=0;childLayout=stackLayout;horizontal=1;startSize=26;horizontalStack=0;resizeParent=1;resizeParentMax=0;resizeLast=0;collapsible=1;marginBottom=0;align=center;fontSize=14;" parent="1" vertex="1">
          <mxGeometry x="486" y="-154" width="160" height="119" as="geometry" />
        </mxCell>
        <mxCell id="6JfQClbxXGTTp9EC3AR5-64" value="&lt;div&gt;id_room : int PK&lt;/div&gt;&lt;div&gt;type : varchar&lt;/div&gt;&lt;div&gt;price : double&lt;/div&gt;&lt;div&gt;availability : boolean&lt;/div&gt;&lt;div&gt;extras : varchar&lt;/div&gt;" style="text;strokeColor=none;fillColor=none;spacingLeft=4;spacingRight=4;overflow=hidden;rotatable=0;points=[[0,0.5],[1,0.5]];portConstraint=eastwest;fontSize=12;whiteSpace=wrap;html=1;" parent="6JfQClbxXGTTp9EC3AR5-63" vertex="1">
          <mxGeometry y="26" width="160" height="93" as="geometry" />
        </mxCell>
        <mxCell id="6JfQClbxXGTTp9EC3AR5-68" value="Event-Installation" style="swimlane;fontStyle=0;childLayout=stackLayout;horizontal=1;startSize=26;horizontalStack=0;resizeParent=1;resizeParentMax=0;resizeLast=0;collapsible=1;marginBottom=0;align=center;fontSize=14;" parent="1" vertex="1">
          <mxGeometry x="687" y="-467" width="160" height="78" as="geometry" />
        </mxCell>
        <mxCell id="6JfQClbxXGTTp9EC3AR5-69" value="&lt;div&gt;id_event-installation : int PK&lt;/div&gt;&lt;div&gt;id_event : FK&lt;/div&gt;&lt;div&gt;id_installation : int FK&lt;/div&gt;" style="text;strokeColor=none;fillColor=none;spacingLeft=4;spacingRight=4;overflow=hidden;rotatable=0;points=[[0,0.5],[1,0.5]];portConstraint=eastwest;fontSize=12;whiteSpace=wrap;html=1;" parent="6JfQClbxXGTTp9EC3AR5-68" vertex="1">
          <mxGeometry y="26" width="160" height="52" as="geometry" />
        </mxCell>
        <mxCell id="tfc34CaD-me6gObzAvvp-3" value="" style="edgeStyle=entityRelationEdgeStyle;fontSize=12;html=1;endArrow=ERmandOne;startArrow=ERoneToMany;rounded=0;entryX=-0.013;entryY=0.26;entryDx=0;entryDy=0;entryPerimeter=0;exitX=1;exitY=0.5;exitDx=0;exitDy=0;startFill=0;" parent="1" source="6JfQClbxXGTTp9EC3AR5-29" target="6JfQClbxXGTTp9EC3AR5-39" edge="1">
          <mxGeometry width="100" height="100" relative="1" as="geometry">
            <mxPoint x="127" y="-247" as="sourcePoint" />
            <mxPoint x="227" y="-347" as="targetPoint" />
          </mxGeometry>
        </mxCell>
        <mxCell id="tfc34CaD-me6gObzAvvp-4" value="" style="edgeStyle=entityRelationEdgeStyle;fontSize=12;html=1;endArrow=ERmandOne;startArrow=ERzeroToMany;rounded=0;entryX=0.003;entryY=0.606;entryDx=0;entryDy=0;entryPerimeter=0;exitX=1.012;exitY=0.39;exitDx=0;exitDy=0;exitPerimeter=0;startFill=0;endFill=0;" parent="1" source="6JfQClbxXGTTp9EC3AR5-39" target="6JfQClbxXGTTp9EC3AR5-17" edge="1">
          <mxGeometry width="100" height="100" relative="1" as="geometry">
            <mxPoint x="392" y="-265" as="sourcePoint" />
            <mxPoint x="492" y="-365" as="targetPoint" />
          </mxGeometry>
        </mxCell>
        <mxCell id="tfc34CaD-me6gObzAvvp-5" value="" style="edgeStyle=entityRelationEdgeStyle;fontSize=12;html=1;endArrow=ERmandOne;startArrow=ERzeroToMany;rounded=0;exitX=1.011;exitY=0.768;exitDx=0;exitDy=0;exitPerimeter=0;endFill=0;startFill=0;entryX=-0.023;entryY=0.375;entryDx=0;entryDy=0;entryPerimeter=0;" parent="1" source="6JfQClbxXGTTp9EC3AR5-29" target="6JfQClbxXGTTp9EC3AR5-43" edge="1">
          <mxGeometry width="100" height="100" relative="1" as="geometry">
            <mxPoint x="138" y="-119" as="sourcePoint" />
            <mxPoint x="239" y="-164" as="targetPoint" />
          </mxGeometry>
        </mxCell>
        <mxCell id="tfc34CaD-me6gObzAvvp-6" value="" style="fontSize=12;html=1;endArrow=ERmandOne;startArrow=ERoneToMany;rounded=0;entryX=0.611;entryY=0.978;entryDx=0;entryDy=0;entryPerimeter=0;startFill=0;endFill=0;" parent="1" edge="1">
          <mxGeometry width="100" height="100" relative="1" as="geometry">
            <mxPoint x="321" y="-72" as="sourcePoint" />
            <mxPoint x="321.18999999999994" y="-132.73999999999998" as="targetPoint" />
          </mxGeometry>
        </mxCell>
        <mxCell id="tfc34CaD-me6gObzAvvp-7" value="" style="edgeStyle=entityRelationEdgeStyle;fontSize=12;html=1;endArrow=ERzeroToOne;startArrow=ERmandOne;rounded=0;exitX=1;exitY=0.5;exitDx=0;exitDy=0;entryX=-0.017;entryY=0.409;entryDx=0;entryDy=0;entryPerimeter=0;startFill=0;endFill=0;" parent="1" source="6JfQClbxXGTTp9EC3AR5-33" target="6JfQClbxXGTTp9EC3AR5-25" edge="1">
          <mxGeometry width="100" height="100" relative="1" as="geometry">
            <mxPoint x="166" y="-27" as="sourcePoint" />
            <mxPoint x="226" y="-152" as="targetPoint" />
          </mxGeometry>
        </mxCell>
        <mxCell id="tfc34CaD-me6gObzAvvp-8" value="" style="edgeStyle=entityRelationEdgeStyle;fontSize=12;html=1;endArrow=ERmandOne;startArrow=ERoneToMany;rounded=0;startFill=0;endFill=0;entryX=-0.015;entryY=0.368;entryDx=0;entryDy=0;entryPerimeter=0;exitX=1.017;exitY=0.23;exitDx=0;exitDy=0;exitPerimeter=0;" parent="1" source="6JfQClbxXGTTp9EC3AR5-25" target="6JfQClbxXGTTp9EC3AR5-64" edge="1">
          <mxGeometry width="100" height="100" relative="1" as="geometry">
            <mxPoint x="420" y="-25" as="sourcePoint" />
            <mxPoint x="480" y="-69" as="targetPoint" />
            <Array as="points">
              <mxPoint x="460" y="-185" />
              <mxPoint x="474" y="-101" />
            </Array>
          </mxGeometry>
        </mxCell>
        <mxCell id="tfc34CaD-me6gObzAvvp-9" value="" style="edgeStyle=entityRelationEdgeStyle;fontSize=12;html=1;endArrow=ERmandOne;startArrow=ERmandOne;rounded=0;entryX=-0.009;entryY=0.111;entryDx=0;entryDy=0;exitX=1;exitY=0.5;exitDx=0;exitDy=0;entryPerimeter=0;" parent="1" source="6JfQClbxXGTTp9EC3AR5-25" target="6JfQClbxXGTTp9EC3AR5-4" edge="1">
          <mxGeometry width="100" height="100" relative="1" as="geometry">
            <mxPoint x="407" y="48" as="sourcePoint" />
            <mxPoint x="507" y="-52" as="targetPoint" />
          </mxGeometry>
        </mxCell>
        <mxCell id="tfc34CaD-me6gObzAvvp-11" value="" style="edgeStyle=entityRelationEdgeStyle;fontSize=12;html=1;endArrow=ERoneToMany;endFill=0;rounded=0;entryX=0;entryY=0.5;entryDx=0;entryDy=0;exitX=1.018;exitY=0.203;exitDx=0;exitDy=0;exitPerimeter=0;startArrow=ERmandOne;startFill=0;" parent="1" source="6JfQClbxXGTTp9EC3AR5-13" target="6JfQClbxXGTTp9EC3AR5-4" edge="1">
          <mxGeometry width="100" height="100" relative="1" as="geometry">
            <mxPoint x="462" y="288" as="sourcePoint" />
            <mxPoint x="562" y="188" as="targetPoint" />
          </mxGeometry>
        </mxCell>
        <mxCell id="tfc34CaD-me6gObzAvvp-12" value="" style="fontSize=12;html=1;endArrow=ERmandOne;startArrow=ERmandOne;rounded=0;exitX=1.021;exitY=0.795;exitDx=0;exitDy=0;exitPerimeter=0;entryX=0.006;entryY=0.782;entryDx=0;entryDy=0;entryPerimeter=0;" parent="1" source="6JfQClbxXGTTp9EC3AR5-13" target="6JfQClbxXGTTp9EC3AR5-8" edge="1">
          <mxGeometry width="100" height="100" relative="1" as="geometry">
            <mxPoint x="594" y="351" as="sourcePoint" />
            <mxPoint x="694" y="251" as="targetPoint" />
          </mxGeometry>
        </mxCell>
        <mxCell id="tfc34CaD-me6gObzAvvp-13" value="Work" style="whiteSpace=wrap;html=1;align=center;" parent="1" vertex="1">
          <mxGeometry x="546" y="219" width="56" height="28" as="geometry" />
        </mxCell>
        <mxCell id="tfc34CaD-me6gObzAvvp-15" value="Organize" style="whiteSpace=wrap;html=1;align=center;" parent="1" vertex="1">
          <mxGeometry x="446" y="138" width="64" height="22" as="geometry" />
        </mxCell>
        <mxCell id="tfc34CaD-me6gObzAvvp-21" value="Reservation-Room" style="swimlane;fontStyle=0;childLayout=stackLayout;horizontal=1;startSize=26;horizontalStack=0;resizeParent=1;resizeParentMax=0;resizeLast=0;collapsible=1;marginBottom=0;align=center;fontSize=14;" parent="1" vertex="1">
          <mxGeometry x="484" y="-256" width="160" height="78" as="geometry" />
        </mxCell>
        <mxCell id="tfc34CaD-me6gObzAvvp-22" value="&lt;div&gt;id_reservation-room : int PK&lt;/div&gt;&lt;div&gt;id_reservation : int FK&lt;/div&gt;&lt;div&gt;id_room : int FK&lt;/div&gt;" style="text;strokeColor=none;fillColor=none;spacingLeft=4;spacingRight=4;overflow=hidden;rotatable=0;points=[[0,0.5],[1,0.5]];portConstraint=eastwest;fontSize=12;whiteSpace=wrap;html=1;" parent="tfc34CaD-me6gObzAvvp-21" vertex="1">
          <mxGeometry y="26" width="160" height="52" as="geometry" />
        </mxCell>
        <mxCell id="tfc34CaD-me6gObzAvvp-25" value="Loyalty-Reward" style="swimlane;fontStyle=0;childLayout=stackLayout;horizontal=1;startSize=26;horizontalStack=0;resizeParent=1;resizeParentMax=0;resizeLast=0;collapsible=1;marginBottom=0;align=center;fontSize=14;" parent="1" vertex="1">
          <mxGeometry x="-2" y="-41" width="160" height="80" as="geometry" />
        </mxCell>
        <mxCell id="tfc34CaD-me6gObzAvvp-26" value="&lt;div&gt;id_loyalty-reward : int PK&lt;/div&gt;&lt;div&gt;id_loyalty : int FK&lt;/div&gt;&lt;div&gt;id_reward : int FK&lt;/div&gt;" style="text;strokeColor=none;fillColor=none;spacingLeft=4;spacingRight=4;overflow=hidden;rotatable=0;points=[[0,0.5],[1,0.5]];portConstraint=eastwest;fontSize=12;whiteSpace=wrap;html=1;" parent="tfc34CaD-me6gObzAvvp-25" vertex="1">
          <mxGeometry y="26" width="160" height="54" as="geometry" />
        </mxCell>
        <mxCell id="tfc34CaD-me6gObzAvvp-29" value="" style="fontSize=12;html=1;endArrow=ERoneToMany;startArrow=ERmandOne;rounded=0;exitX=0.5;exitY=0;exitDx=0;exitDy=0;entryX=0.5;entryY=1.045;entryDx=0;entryDy=0;entryPerimeter=0;startFill=0;endFill=0;" parent="1" source="tfc34CaD-me6gObzAvvp-25" target="6JfQClbxXGTTp9EC3AR5-33" edge="1">
          <mxGeometry width="100" height="100" relative="1" as="geometry">
            <mxPoint x="14" y="-3" as="sourcePoint" />
            <mxPoint x="114" y="-103" as="targetPoint" />
          </mxGeometry>
        </mxCell>
        <mxCell id="tfc34CaD-me6gObzAvvp-30" value="" style="fontSize=12;html=1;endArrow=ERmandOne;startArrow=ERoneToMany;rounded=0;entryX=0.495;entryY=1.12;entryDx=0;entryDy=0;entryPerimeter=0;exitX=0.5;exitY=0;exitDx=0;exitDy=0;startFill=0;endFill=0;" parent="1" source="6JfQClbxXGTTp9EC3AR5-46" target="tfc34CaD-me6gObzAvvp-26" edge="1">
          <mxGeometry width="100" height="100" relative="1" as="geometry">
            <mxPoint x="96" y="77" as="sourcePoint" />
            <mxPoint x="77.5" y="30" as="targetPoint" />
          </mxGeometry>
        </mxCell>
        <mxCell id="tfc34CaD-me6gObzAvvp-31" value="" style="fontSize=12;html=1;endArrow=ERmandOne;startArrow=ERmandOne;rounded=0;exitX=0.5;exitY=0;exitDx=0;exitDy=0;entryX=0.554;entryY=1.019;entryDx=0;entryDy=0;entryPerimeter=0;" parent="1" source="6JfQClbxXGTTp9EC3AR5-32" target="6JfQClbxXGTTp9EC3AR5-29" edge="1">
          <mxGeometry width="100" height="100" relative="1" as="geometry">
            <mxPoint x="2" y="-174" as="sourcePoint" />
            <mxPoint x="102" y="-274" as="targetPoint" />
          </mxGeometry>
        </mxCell>
        <mxCell id="tfc34CaD-me6gObzAvvp-32" value="Accustom" style="whiteSpace=wrap;html=1;align=center;" parent="1" vertex="1">
          <mxGeometry x="54" y="-225" width="62" height="21" as="geometry" />
        </mxCell>
        <mxCell id="tfc34CaD-me6gObzAvvp-33" value="Calculate" style="whiteSpace=wrap;html=1;align=center;" parent="1" vertex="1">
          <mxGeometry x="170" y="-87" width="64" height="22" as="geometry" />
        </mxCell>
        <mxCell id="tfc34CaD-me6gObzAvvp-34" value="Add" style="whiteSpace=wrap;html=1;align=center;" parent="1" vertex="1">
          <mxGeometry x="299" y="-115" width="46" height="21" as="geometry" />
        </mxCell>
        <mxCell id="tfc34CaD-me6gObzAvvp-35" value="&lt;div&gt;Occupy&lt;/div&gt;" style="whiteSpace=wrap;html=1;align=center;" parent="1" vertex="1">
          <mxGeometry x="410" y="-78" width="56.5" height="24" as="geometry" />
        </mxCell>
        <mxCell id="tfc34CaD-me6gObzAvvp-37" value="Book" style="whiteSpace=wrap;html=1;align=center;" parent="1" vertex="1">
          <mxGeometry x="172" y="-341" width="44" height="22" as="geometry" />
        </mxCell>
        <mxCell id="tfc34CaD-me6gObzAvvp-39" value="Privatize" style="whiteSpace=wrap;html=1;align=center;" parent="1" vertex="1">
          <mxGeometry x="424" y="-346" width="51" height="20" as="geometry" />
        </mxCell>
        <mxCell id="CBLxc6X5hEkNXTzPDG8d-1" value="" style="fontSize=12;html=1;endArrow=ERoneToMany;startArrow=ERmandOne;rounded=0;exitX=0;exitY=0.5;exitDx=0;exitDy=0;entryX=1;entryY=0.5;entryDx=0;entryDy=0;startFill=0;endFill=0;edgeStyle=orthogonalEdgeStyle;" parent="1" source="6JfQClbxXGTTp9EC3AR5-69" target="6JfQClbxXGTTp9EC3AR5-17" edge="1">
          <mxGeometry width="100" height="100" relative="1" as="geometry">
            <mxPoint x="663.5" y="-328" as="sourcePoint" />
            <mxPoint x="663.5" y="-394" as="targetPoint" />
          </mxGeometry>
        </mxCell>
        <mxCell id="CBLxc6X5hEkNXTzPDG8d-2" value="" style="fontSize=12;html=1;endArrow=ERoneToMany;startArrow=ERmandOne;rounded=0;exitX=1;exitY=0.5;exitDx=0;exitDy=0;entryX=0;entryY=0.5;entryDx=0;entryDy=0;startFill=0;endFill=0;edgeStyle=orthogonalEdgeStyle;" parent="1" source="6JfQClbxXGTTp9EC3AR5-69" target="6JfQClbxXGTTp9EC3AR5-21" edge="1">
          <mxGeometry width="100" height="100" relative="1" as="geometry">
            <mxPoint x="874" y="-304" as="sourcePoint" />
            <mxPoint x="874" y="-370" as="targetPoint" />
          </mxGeometry>
        </mxCell>
        <mxCell id="CBLxc6X5hEkNXTzPDG8d-5" value="" style="fontSize=12;html=1;endArrow=ERoneToMany;startArrow=ERmandOne;rounded=0;exitX=0;exitY=0.5;exitDx=0;exitDy=0;entryX=1.018;entryY=0.74;entryDx=0;entryDy=0;startFill=0;endFill=0;edgeStyle=orthogonalEdgeStyle;entryPerimeter=0;" parent="1" source="tfc34CaD-me6gObzAvvp-22" target="6JfQClbxXGTTp9EC3AR5-39" edge="1">
          <mxGeometry width="100" height="100" relative="1" as="geometry">
            <mxPoint x="515" y="-221" as="sourcePoint" />
            <mxPoint x="424" y="-115" as="targetPoint" />
          </mxGeometry>
        </mxCell>
        <mxCell id="CBLxc6X5hEkNXTzPDG8d-6" value="" style="fontSize=12;html=1;endArrow=ERoneToMany;startArrow=ERmandOne;rounded=0;exitX=1.008;exitY=0.312;exitDx=0;exitDy=0;entryX=1;entryY=0.25;entryDx=0;entryDy=0;startFill=0;endFill=0;edgeStyle=orthogonalEdgeStyle;exitPerimeter=0;" parent="1" source="tfc34CaD-me6gObzAvvp-22" target="6JfQClbxXGTTp9EC3AR5-63" edge="1">
          <mxGeometry width="100" height="100" relative="1" as="geometry">
            <mxPoint x="851" y="-119" as="sourcePoint" />
            <mxPoint x="760" y="-13" as="targetPoint" />
            <Array as="points">
              <mxPoint x="682" y="-214" />
              <mxPoint x="682" y="-124" />
            </Array>
          </mxGeometry>
        </mxCell>
        <mxCell id="CBLxc6X5hEkNXTzPDG8d-7" value="Enjoy" style="rounded=0;whiteSpace=wrap;html=1;" parent="1" vertex="1">
          <mxGeometry x="639" y="-385" width="48" height="25" as="geometry" />
        </mxCell>
        <mxCell id="CBLxc6X5hEkNXTzPDG8d-8" value="Enjoy" style="rounded=0;whiteSpace=wrap;html=1;" parent="1" vertex="1">
          <mxGeometry x="838" y="-381" width="48" height="25" as="geometry" />
        </mxCell>
        <mxCell id="CBLxc6X5hEkNXTzPDG8d-10" value="Rent" style="rounded=0;whiteSpace=wrap;html=1;" parent="1" vertex="1">
          <mxGeometry x="417.75" y="-271" width="41" height="19" as="geometry" />
        </mxCell>
        <mxCell id="CBLxc6X5hEkNXTzPDG8d-11" value="Rent" style="rounded=0;whiteSpace=wrap;html=1;" parent="1" vertex="1">
          <mxGeometry x="663.5" y="-181" width="41" height="19" as="geometry" />
        </mxCell>
        <mxCell id="CBLxc6X5hEkNXTzPDG8d-15" value="Recompense" style="rounded=0;whiteSpace=wrap;html=1;" parent="1" vertex="1">
          <mxGeometry x="35" y="-85" width="81" height="25" as="geometry" />
        </mxCell>
        <mxCell id="CBLxc6X5hEkNXTzPDG8d-16" value="Recompense" style="rounded=0;whiteSpace=wrap;html=1;" parent="1" vertex="1">
          <mxGeometry x="41" y="58" width="81" height="25" as="geometry" />
        </mxCell>
        <mxCell id="CBLxc6X5hEkNXTzPDG8d-17" value="Evaluate" style="rounded=0;whiteSpace=wrap;html=1;" parent="1" vertex="1">
          <mxGeometry x="160" y="-238" width="61" height="21" as="geometry" />
        </mxCell>
        <mxCell id="CBLxc6X5hEkNXTzPDG8d-18" value="Supervise" style="rounded=0;whiteSpace=wrap;html=1;" parent="1" vertex="1">
          <mxGeometry x="413.5" y="26" width="61.5" height="22" as="geometry" />
        </mxCell>
      </root>
    </mxGraphModel>
  </diagram>
</mxfile>
